<?xml version="1.0" encoding="UTF-8"?>
<svg xmlns="http://www.w3.org/2000/svg" viewBox="0 0 1200 900" width="1200" height="900">
  <defs>
    <!-- 渐变定义 -->
    <linearGradient id="frontendGrad" x1="0%" y1="0%" x2="0%" y2="100%">
      <stop offset="0%" style="stop-color:#667eea;stop-opacity:1" />
      <stop offset="100%" style="stop-color:#764ba2;stop-opacity:1" />
    </linearGradient>
    <linearGradient id="apiGrad" x1="0%" y1="0%" x2="0%" y2="100%">
      <stop offset="0%" style="stop-color:#f093fb;stop-opacity:1" />
      <stop offset="100%" style="stop-color:#f5576c;stop-opacity:1" />
    </linearGradient>
    <linearGradient id="agentGrad" x1="0%" y1="0%" x2="0%" y2="100%">
      <stop offset="0%" style="stop-color:#4facfe;stop-opacity:1" />
      <stop offset="100%" style="stop-color:#00f2fe;stop-opacity:1" />
    </linearGradient>
    <linearGradient id="toolGrad" x1="0%" y1="0%" x2="0%" y2="100%">
      <stop offset="0%" style="stop-color:#43e97b;stop-opacity:1" />
      <stop offset="100%" style="stop-color:#38f9d7;stop-opacity:1" />
    </linearGradient>
    <linearGradient id="serviceGrad" x1="0%" y1="0%" x2="0%" y2="100%">
      <stop offset="0%" style="stop-color:#fa709a;stop-opacity:1" />
      <stop offset="100%" style="stop-color:#fee140;stop-opacity:1" />
    </linearGradient>
    <linearGradient id="storageGrad" x1="0%" y1="0%" x2="0%" y2="100%">
      <stop offset="0%" style="stop-color:#a8edea;stop-opacity:1" />
      <stop offset="100%" style="stop-color:#fed6e3;stop-opacity:1" />
    </linearGradient>
    <linearGradient id="externalGrad" x1="0%" y1="0%" x2="0%" y2="100%">
      <stop offset="0%" style="stop-color:#d299c2;stop-opacity:1" />
      <stop offset="100%" style="stop-color:#fef9d7;stop-opacity:1" />
    </linearGradient>

    <!-- 箭头定义 -->
    <marker id="arrowhead" markerWidth="10" markerHeight="7" refX="9" refY="3.5" orient="auto">
      <polygon points="0 0, 10 3.5, 0 7" fill="#666" />
    </marker>
    <marker id="arrowheadBlue" markerWidth="10" markerHeight="7" refX="9" refY="3.5" orient="auto">
      <polygon points="0 0, 10 3.5, 0 7" fill="#4facfe" />
    </marker>

    <!-- 阴影滤镜 -->
    <filter id="shadow" x="-20%" y="-20%" width="140%" height="140%">
      <feDropShadow dx="2" dy="2" stdDeviation="3" flood-opacity="0.2"/>
    </filter>
  </defs>

  <!-- 背景 -->
  <rect width="1200" height="900" fill="#fafbfc"/>

  <!-- 标题 -->
  <text x="600" y="45" text-anchor="middle" font-size="24" font-weight="bold" fill="#333">
    报告生成 Agent 系统架构
  </text>
  <text x="600" y="70" text-anchor="middle" font-size="14" fill="#666">
    v2.0 - 智能数据分析与报告生成系统
  </text>

  <!-- ==================== 前端层 ==================== -->
  <g id="frontend-layer" transform="translate(50, 100)">
    <rect x="0" y="0" width="1100" height="100" rx="12" fill="none" stroke="#667eea" stroke-width="2" stroke-dasharray="8,4"/>
    <text x="20" y="25" font-size="14" font-weight="bold" fill="#667eea">前端层 (Vue 3)</text>

    <!-- 用户界面 -->
    <rect x="40" y="40" width="180" height="50" rx="8" fill="url(#frontendGrad)" filter="url(#shadow)"/>
    <text x="130" y="60" text-anchor="middle" font-size="12" fill="white" font-weight="bold">用户界面</text>
    <text x="130" y="78" text-anchor="middle" font-size="10" fill="white">Vue 3 + Element Plus</text>

    <!-- 会话管理 -->
    <rect x="250" y="40" width="140" height="50" rx="8" fill="url(#frontendGrad)" filter="url(#shadow)"/>
    <text x="320" y="60" text-anchor="middle" font-size="12" fill="white" font-weight="bold">会话管理</text>
    <text x="320" y="78" text-anchor="middle" font-size="10" fill="white">多会话隔离</text>

    <!-- 文件上传 -->
    <rect x="420" y="40" width="140" height="50" rx="8" fill="url(#frontendGrad)" filter="url(#shadow)"/>
    <text x="490" y="60" text-anchor="middle" font-size="12" fill="white" font-weight="bold">文件上传</text>
    <text x="490" y="78" text-anchor="middle" font-size="10" fill="white">CSV/Excel</text>

    <!-- 聊天交互 -->
    <rect x="590" y="40" width="140" height="50" rx="8" fill="url(#frontendGrad)" filter="url(#shadow)"/>
    <text x="660" y="60" text-anchor="middle" font-size="12" fill="white" font-weight="bold">聊天交互</text>
    <text x="660" y="78" text-anchor="middle" font-size="10" fill="white">流式响应</text>

    <!-- 报告查看 -->
    <rect x="760" y="40" width="140" height="50" rx="8" fill="url(#frontendGrad)" filter="url(#shadow)"/>
    <text x="830" y="60" text-anchor="middle" font-size="12" fill="white" font-weight="bold">报告查看</text>
    <text x="830" y="78" text-anchor="middle" font-size="10" fill="white">HTML/下载</text>

    <!-- WebSocket -->
    <rect x="930" y="40" width="130" height="50" rx="8" fill="url(#frontendGrad)" filter="url(#shadow)"/>
    <text x="995" y="60" text-anchor="middle" font-size="12" fill="white" font-weight="bold">WebSocket</text>
    <text x="995" y="78" text-anchor="middle" font-size="10" fill="white">实时推送</text>
  </g>

  <!-- ==================== API 层 ==================== -->
  <g id="api-layer" transform="translate(50, 230)">
    <rect x="0" y="0" width="1100" height="100" rx="12" fill="none" stroke="#f5576c" stroke-width="2" stroke-dasharray="8,4"/>
    <text x="20" y="25" font-size="14" font-weight="bold" fill="#f5576c">API 层 (FastAPI)</text>

    <!-- REST API -->
    <rect x="40" y="40" width="160" height="50" rx="8" fill="url(#apiGrad)" filter="url(#shadow)"/>
    <text x="120" y="60" text-anchor="middle" font-size="12" fill="white" font-weight="bold">REST API</text>
    <text x="120" y="78" text-anchor="middle" font-size="10" fill="white">会话/文件/报告</text>

    <!-- WebSocket API -->
    <rect x="230" y="40" width="160" height="50" rx="8" fill="url(#apiGrad)" filter="url(#shadow)"/>
    <text x="310" y="60" text-anchor="middle" font-size="12" fill="white" font-weight="bold">WebSocket API</text>
    <text x="310" y="78" text-anchor="middle" font-size="10" fill="white">流式/进度推送</text>

    <!-- 健康检查 -->
    <rect x="420" y="40" width="120" height="50" rx="8" fill="url(#apiGrad)" filter="url(#shadow)"/>
    <text x="480" y="60" text-anchor="middle" font-size="12" fill="white" font-weight="bold">健康检查</text>
    <text x="480" y="78" text-anchor="middle" font-size="10" fill="white">/api/health</text>

    <!-- 工具列表 -->
    <rect x="570" y="40" width="140" height="50" rx="8" fill="url(#apiGrad)" filter="url(#shadow)"/>
    <text x="640" y="60" text-anchor="middle" font-size="12" fill="white" font-weight="bold">工具列表</text>
    <text x="640" y="78" text-anchor="middle" font-size="10" fill="white">/api/tools</text>

    <!-- 图表数据 -->
    <rect x="740" y="40" width="140" height="50" rx="8" fill="url(#apiGrad)" filter="url(#shadow)"/>
    <text x="810" y="60" text-anchor="middle" font-size="12" fill="white" font-weight="bold">图表数据</text>
    <text x="810" y="78" text-anchor="middle" font-size="10" fill="white">raw-data</text>

    <!-- 报告下载 -->
    <rect x="910" y="40" width="140" height="50" rx="8" fill="url(#apiGrad)" filter="url(#shadow)"/>
    <text x="980" y="60" text-anchor="middle" font-size="12" fill="white" font-weight="bold">报告下载</text>
    <text x="980" y="78" text-anchor="middle" font-size="10" fill="white">download</text>
  </g>

  <!-- ==================== Agent 核心层 ==================== -->
  <g id="agent-layer" transform="translate(50, 360)">
    <rect x="0" y="0" width="1100" height="130" rx="12" fill="none" stroke="#4facfe" stroke-width="2" stroke-dasharray="8,4"/>
    <text x="20" y="25" font-size="14" font-weight="bold" fill="#4facfe">Agent 核心层</text>

    <!-- Tool-Calling Agent -->
    <rect x="40" y="40" width="200" height="80" rx="10" fill="url(#agentGrad)" filter="url(#shadow)"/>
    <text x="140" y="65" text-anchor="middle" font-size="13" fill="white" font-weight="bold">Tool-Calling Agent</text>
    <text x="140" y="85" text-anchor="middle" font-size="11" fill="white">ReAct 循环引擎</text>
    <text x="140" y="105" text-anchor="middle" font-size="10" fill="white">qwen3.5-flash</text>

    <!-- ReportAgent -->
    <rect x="270" y="40" width="200" height="80" rx="10" fill="url(#agentGrad)" filter="url(#shadow)"/>
    <text x="370" y="65" text-anchor="middle" font-size="13" fill="white" font-weight="bold">ReportAgent</text>
    <text x="370" y="85" text-anchor="middle" font-size="11" fill="white">智能报告规划</text>
    <text x="370" y="105" text-anchor="middle" font-size="10" fill="white">异步生成/进度推送</text>

    <!-- Report Planner -->
    <rect x="500" y="40" width="160" height="80" rx="10" fill="url(#agentGrad)" filter="url(#shadow)"/>
    <text x="580" y="65" text-anchor="middle" font-size="12" fill="white" font-weight="bold">Report Planner</text>
    <text x="580" y="85" text-anchor="middle" font-size="11" fill="white">报告结构规划</text>
    <text x="580" y="105" text-anchor="middle" font-size="10" fill="white">章节安排</text>

    <!-- Report Executor -->
    <rect x="690" y="40" width="160" height="80" rx="10" fill="url(#agentGrad)" filter="url(#shadow)"/>
    <text x="770" y="65" text-anchor="middle" font-size="12" fill="white" font-weight="bold">Report Executor</text>
    <text x="770" y="85" text-anchor="middle" font-size="11" fill="white">报告内容执行</text>
    <text x="770" y="105" text-anchor="middle" font-size="10" fill="white">数据提取/分析</text>

    <!-- LLM Interface -->
    <rect x="880" y="40" width="140" height="80" rx="10" fill="url(#agentGrad)" filter="url(#shadow)"/>
    <text x="950" y="65" text-anchor="middle" font-size="12" fill="white" font-weight="bold">LLM Interface</text>
    <text x="950" y="85" text-anchor="middle" font-size="11" fill="white">MultiModal</text>
    <text x="950" y="105" text-anchor="middle" font-size="10" fill="white">DashScope SDK</text>

    <!-- Tool Registry -->
    <rect x="420" y="140" width="260" height="60" rx="10" fill="url(#toolGrad)" filter="url(#shadow)"/>
    <text x="550" y="165" text-anchor="middle" font-size="13" fill="#333" font-weight="bold">Tool Registry (工具注册中心)</text>
    <text x="550" y="185" text-anchor="middle" font-size="11" fill="#333">单例模式 | 工具调度 | 参数验证</text>
  </g>

  <!-- ==================== 工具层 ==================== -->
  <g id="tool-layer" transform="translate(50, 520)">
    <rect x="0" y="0" width="1100" height="110" rx="12" fill="none" stroke="#43e97b" stroke-width="2" stroke-dasharray="8,4"/>
    <text x="20" y="25" font-size="14" font-weight="bold" fill="#43e97b">工具层 (Tools)</text>

    <!-- AnalyzeData -->
    <rect x="40" y="40" width="130" height="60" rx="8" fill="url(#toolGrad)" filter="url(#shadow)"/>
    <text x="105" y="60" text-anchor="middle" font-size="11" fill="#333" font-weight="bold">analyze_data</text>
    <text x="105" y="78" text-anchor="middle" font-size="9" fill="#333">数据分析</text>
    <text x="105" y="92" text-anchor="middle" font-size="9" fill="#333">基础统计</text>

    <!-- Column Distribution -->
    <rect x="180" y="40" width="130" height="60" rx="8" fill="url(#toolGrad)" filter="url(#shadow)"/>
    <text x="245" y="60" text-anchor="middle" font-size="11" fill="#333" font-weight="bold">get_column_</text>
    <text x="245" y="75" text-anchor="middle" font-size="11" fill="#333">distribution</text>
    <text x="245" y="92" text-anchor="middle" font-size="9" fill="#333">数据分布</text>

    <!-- Column Statistics -->
    <rect x="320" y="40" width="130" height="60" rx="8" fill="url(#toolGrad)" filter="url(#shadow)"/>
    <text x="385" y="60" text-anchor="middle" font-size="11" fill="#333" font-weight="bold">get_column_</text>
    <text x="385" y="75" text-anchor="middle" font-size="11" fill="#333">statistics</text>
    <text x="385" y="92" text-anchor="middle" font-size="9" fill="#333">统计分析</text>

    <!-- Generate Chart -->
    <rect x="460" y="40" width="130" height="60" rx="8" fill="url(#toolGrad)" filter="url(#shadow)"/>
    <text x="525" y="60" text-anchor="middle" font-size="11" fill="#333" font-weight="bold">generate_chart</text>
    <text x="525" y="78" text-anchor="middle" font-size="9" fill="#333">柱状图/折线图/饼图</text>
    <text x="525" y="92" text-anchor="middle" font-size="9" fill="#333">散点图</text>

    <!-- Correlation Heatmap -->
    <rect x="600" y="40" width="130" height="60" rx="8" fill="url(#toolGrad)" filter="url(#shadow)"/>
    <text x="665" y="60" text-anchor="middle" font-size="11" fill="#333" font-weight="bold">correlation_</text>
    <text x="665" y="75" text-anchor="middle" font-size="11" fill="#333">heatmap</text>
    <text x="665" y="92" text-anchor="middle" font-size="9" fill="#333">相关性热力图</text>

    <!-- Auto Generate Charts -->
    <rect x="740" y="40" width="130" height="60" rx="8" fill="url(#toolGrad)" filter="url(#shadow)"/>
    <text x="805" y="60" text-anchor="middle" font-size="11" fill="#333" font-weight="bold">auto_generate_</text>
    <text x="805" y="75" text-anchor="middle" font-size="11" fill="#333">charts</text>
    <text x="805" y="92" text-anchor="middle" font-size="9" fill="#333">自动图表生成</text>

    <!-- Generate Report -->
    <rect x="880" y="40" width="130" height="60" rx="8" fill="url(#toolGrad)" filter="url(#shadow)"/>
    <text x="945" y="60" text-anchor="middle" font-size="11" fill="#333" font-weight="bold">generate_report</text>
    <text x="945" y="78" text-anchor="middle" font-size="9" fill="#333">HTML 报告</text>
    <text x="945" y="92" text-anchor="middle" font-size="9" fill="#333">完整分析</text>
  </g>

  <!-- ==================== 服务层 ==================== -->
  <g id="service-layer" transform="translate(50, 660)">
    <rect x="0" y="0" width="700" height="80" rx="12" fill="none" stroke="#fa709a" stroke-width="2" stroke-dasharray="8,4"/>
    <text x="20" y="25" font-size="14" font-weight="bold" fill="#fa709a">服务层 (Services)</text>

    <!-- Session Manager -->
    <rect x="40" y="35" width="160" height="35" rx="8" fill="url(#serviceGrad)" filter="url(#shadow)"/>
    <text x="120" y="58" text-anchor="middle" font-size="11" fill="#333" font-weight="bold">SessionManager</text>
    <text x="120" y="75" text-anchor="middle" font-size="9" fill="#333">会话管理 (单例)</text>

    <!-- Report Generator -->
    <rect x="220" y="35" width="150" height="35" rx="8" fill="url(#serviceGrad)" filter="url(#shadow)"/>
    <text x="295" y="58" text-anchor="middle" font-size="11" fill="#333" font-weight="bold">ReportGenerator</text>
    <text x="295" y="75" text-anchor="middle" font-size="9" fill="#333">报告生成</text>

    <!-- File Handler -->
    <rect x="390" y="35" width="130" height="35" rx="8" fill="url(#serviceGrad)" filter="url(#shadow)"/>
    <text x="455" y="58" text-anchor="middle" font-size="11" fill="#333" font-weight="bold">FileHandler</text>
    <text x="455" y="75" text-anchor="middle" font-size="9" fill="#333">文件处理</text>

    <!-- Chart Builder -->
    <rect x="540" y="35" width="130" height="35" rx="8" fill="url(#serviceGrad)" filter="url(#shadow)"/>
    <text x="605" y="58" text-anchor="middle" font-size="11" fill="#333" font-weight="bold">ChartBuilder</text>
    <text x="605" y="75" text-anchor="middle" font-size="9" fill="#333">图表构建 (pyecharts)</text>

    <!-- WebSocket Manager -->
    <rect x="40" y="85" width="160" height="35" rx="8" fill="url(#serviceGrad)" filter="url(#shadow)"/>
    <text x="120" y="108" text-anchor="middle" font-size="11" fill="#333" font-weight="bold">WebSocketManager</text>
    <text x="120" y="125" text-anchor="middle" font-size="9" fill="#333">实时推送/广播</text>

    <!-- Performance Logger -->
    <rect x="220" y="85" width="150" height="35" rx="8" fill="url(#serviceGrad)" filter="url(#shadow)"/>
    <text x="295" y="108" text-anchor="middle" font-size="11" fill="#333" font-weight="bold">PerformanceLogger</text>
    <text x="295" y="125" text-anchor="middle" font-size="9" fill="#333">性能追踪</text>

    <!-- Cache -->
    <rect x="390" y="85" width="130" height="35" rx="8" fill="url(#serviceGrad)" filter="url(#shadow)"/>
    <text x="455" y="108" text-anchor="middle" font-size="11" fill="#333" font-weight="bold">Cache</text>
    <text x="455" y="125" text-anchor="middle" font-size="9" fill="#333">数据缓存</text>
  </g>

  <!-- ==================== 数据存储层 ==================== -->
  <g id="storage-layer" transform="translate(780, 660)">
    <rect x="0" y="0" width="370" height="130" rx="12" fill="none" stroke="#a8edea" stroke-width="2" stroke-dasharray="8,4"/>
    <text x="20" y="25" font-size="14" font-weight="bold" fill="#a8edea">数据存储</text>

    <!-- Uploads -->
    <rect x="30" y="40" width="100" height="70" rx="8" fill="url(#storageGrad)" filter="url(#shadow)"/>
    <text x="80" y="65" text-anchor="middle" font-size="11" fill="#333" font-weight="bold">uploads/</text>
    <text x="80" y="82" text-anchor="middle" font-size="9" fill="#333">上传文件</text>
    <text x="80" y="97" text-anchor="middle" font-size="9" fill="#333">CSV/Excel</text>

    <!-- Reports -->
    <rect x="150" y="40" width="100" height="70" rx="8" fill="url(#storageGrad)" filter="url(#shadow)"/>
    <text x="200" y="65" text-anchor="middle" font-size="11" fill="#333" font-weight="bold">reports/</text>
    <text x="200" y="82" text-anchor="middle" font-size="9" fill="#333">生成报告</text>
    <text x="200" y="97" text-anchor="middle" font-size="9" fill="#333">HTML</text>

    <!-- Memory -->
    <rect x="270" y="40" width="80" height="70" rx="8" fill="url(#storageGrad)" filter="url(#shadow)"/>
    <text x="310" y="65" text-anchor="middle" font-size="11" fill="#333" font-weight="bold">内存</text>
    <text x="310" y="82" text-anchor="middle" font-size="9" fill="#333">会话状态</text>
    <text x="310" y="97" text-anchor="middle" font-size="9" fill="#333">DataFrame</text>
  </g>

  <!-- ==================== 外部服务 ==================== -->
  <g id="external-layer" transform="translate(780, 810)">
    <rect x="0" y="0" width="370" height="70" rx="12" fill="none" stroke="#d299c2" stroke-width="2" stroke-dasharray="8,4"/>
    <text x="20" y="25" font-size="14" font-weight="bold" fill="#d299c2">外部服务</text>

    <!-- DashScope -->
    <rect x="30" y="35" width="310" height="25" rx="8" fill="url(#externalGrad)" filter="url(#shadow)"/>
    <text x="185" y="52" text-anchor="middle" font-size="11" fill="#333" font-weight="bold">DashScope API (阿里云)</text>
    <text x="185" y="68" text-anchor="middle" font-size="9" fill="#333">qwen3.5-flash 多模态对话模型</text>
  </g>

  <!-- ==================== 连接箭头 ==================== -->
  <!-- 前端层 -> API 层 -->
  <path d="M 600 200 L 600 220" stroke="#666" stroke-width="2" fill="none" marker-end="url(#arrowhead)"/>

  <!-- API 层 -> Agent 层 -->
  <path d="M 600 330 L 600 350" stroke="#666" stroke-width="2" fill="none" marker-end="url(#arrowhead)"/>

  <!-- Agent 层 -> Tool Registry -->
  <path d="M 400 490 L 420 510" stroke="#4facfe" stroke-width="2" fill="none" marker-end="url(#arrowheadBlue)"/>
  <path d="M 800 490 L 680 510" stroke="#4facfe" stroke-width="2" fill="none" marker-end="url(#arrowheadBlue)"/>

  <!-- Agent 层 -> 外部服务 -->
  <path d="M 1020 490 L 1020 510 L 1020 790 L 980 790" stroke="#4facfe" stroke-width="2" fill="none" marker-end="url(#arrowheadBlue)"/>

  <!-- Tool Registry -> 工具层 -->
  <path d="M 550 580 L 550 610" stroke="#43e97b" stroke-width="2" fill="none" marker-end="url(#arrowhead)"/>

  <!-- 工具层 -> 服务层 -->
  <path d="M 300 630 L 300 650" stroke="#43e97b" stroke-width="2" fill="none" marker-end="url(#arrowhead)"/>
  <path d="M 600 630 L 600 650" stroke="#43e97b" stroke-width="2" fill="none" marker-end="url(#arrowhead)"/>

  <!-- 服务层 -> 数据存储 -->
  <path d="M 750 700 L 780 700" stroke="#a8edea" stroke-width="2" fill="none" marker-end="url(#arrowhead)"/>
  <path d="M 455 740 L 380 740 L 380 725 L 340 725" stroke="#a8edea" stroke-width="2" fill="none" marker-end="url(#arrowhead)"/>

  <!-- 图例说明 -->
  <g id="legend" transform="translate(50, 810)">
    <rect x="0" y="0" width="300" height="70" rx="8" fill="#f0f0f0" opacity="0.8"/>
    <text x="15" y="20" font-size="11" font-weight="bold" fill="#333">图例说明</text>

    <rect x="15" y="30" width="20" height="12" rx="3" fill="url(#frontendGrad)"/>
    <text x="40" y="40" font-size="10" fill="#333">前端层</text>

    <rect x="90" y="30" width="20" height="12" rx="3" fill="url(#apiGrad)"/>
    <text x="115" y="40" font-size="10" fill="#333">API 层</text>

    <rect x="170" y="30" width="20" height="12" rx="3" fill="url(#agentGrad)"/>
    <text x="195" y="40" font-size="10" fill="#333">Agent 核心层</text>

    <rect x="15" y="50" width="20" height="12" rx="3" fill="url(#toolGrad)"/>
    <text x="40" y="60" font-size="10" fill="#333">工具层</text>

    <rect x="90" y="50" width="20" height="12" rx="3" fill="url(#serviceGrad)"/>
    <text x="115" y="60" font-size="10" fill="#333">服务层</text>

    <rect x="170" y="50" width="20" height="12" rx="3" fill="url(#storageGrad)"/>
    <text x="195" y="60" font-size="10" fill="#333">数据存储</text>

    <line x1="250" y1="36" x2="270" y2="36" stroke="#666" stroke-width="2" marker-end="url(#arrowhead)"/>
    <text x="275" y="40" font-size="10" fill="#333">数据流向</text>
  </g>
</svg>
